<svg xmlns="http://www.w3.org/2000/svg" version="1.1" xmlns:xlink="http://www.w3.org/1999/xlink" xmlns:svgjs="http://svgjs.dev/svgjs" width="1440" height="560" preserveAspectRatio="none" viewBox="0 0 1440 560"><g mask="url(&quot;#SvgjsMask1114&quot;)" fill="none"><rect width="1440" height="560" x="0" y="0" fill="#0e2a47"></rect><g transform="translate(0, 0)" stroke-linecap="round" stroke="url(&quot;#SvgjsLinearGradient1115&quot;)"><path d="M421 253.1 L421 306.89" stroke-width="17.25"></path><path d="M444 209 L444 351" stroke-width="17.25"></path><path d="M467 235 L467 325" stroke-width="17.25"></path><path d="M490 240.49 L490 319.51" stroke-width="17.25"></path><path d="M513 207.67 L513 352.33" stroke-width="17.25"></path><path d="M536 239.19 L536 320.81" stroke-width="17.25"></path><path d="M559 212.78 L559 347.22" stroke-width="17.25"></path><path d="M582 255.16 L582 304.85" stroke-width="17.25"></path><path d="M605 234.12 L605 325.88" stroke-width="17.25"></path><path d="M628 252.57 L628 307.43" stroke-width="17.25"></path><path d="M651 226.1 L651 333.9" stroke-width="17.25"></path><path d="M674 254.03 L674 305.98" stroke-width="17.25"></path><path d="M697 245.25 L697 314.75" stroke-width="17.25"></path><path d="M720 212.89 L720 347.11" stroke-width="17.25"></path><path d="M743 213.38 L743 346.62" stroke-width="17.25"></path><path d="M766 240.78 L766 319.23" stroke-width="17.25"></path><path d="M789 209.01 L789 350.99" stroke-width="17.25"></path><path d="M812 221.99 L812 338.01" stroke-width="17.25"></path><path d="M835 223.92 L835 336.08" stroke-width="17.25"></path><path d="M858 266.87 L858 293.13" stroke-width="17.25"></path><path d="M881 194.31 L881 365.69" stroke-width="17.25"></path><path d="M904 193.42 L904 366.58" stroke-width="17.25"></path><path d="M927 267.15 L927 292.85" stroke-width="17.25"></path><path d="M950 202.32 L950 357.68" stroke-width="17.25"></path><path d="M973 267.56 L973 292.44" stroke-width="17.25"></path><path d="M996 195.27 L996 364.73" stroke-width="17.25"></path><path d="M1019 250.29 L1019 309.71" stroke-width="17.25"></path></g></g><defs><mask id="SvgjsMask1114"><rect width="1440" height="560" fill="#ffffff"></rect></mask><linearGradient x1="403.2" y1="280" x2="1036.8" y2="280" gradientUnits="userSpaceOnUse" id="SvgjsLinearGradient1115"><stop stop-color="#3a7cc3" offset="0"></stop><stop stop-color="rgba(2, 223, 209, 1)" offset="1"></stop></linearGradient></defs></svg>